<svg width="9" height="12" viewBox="0 0 9 12" fill="none" xmlns="http://www.w3.org/2000/svg">
<path d="M1.3125 1.3125C2.1875 0.4375 3.25 0 4.5 0C5.75 0 6.8125 0.4375 7.6875 1.3125C8.5625 2.1875 9 3.25 9 4.5C9 4.75 8.99219 4.96875 8.97656 5.15625C8.96094 5.32812 8.90625 5.53906 8.8125 5.78906C8.71875 6.03906 8.63281 6.25 8.55469 6.42188C8.47656 6.59375 8.32031 6.875 8.08594 7.26562C7.85156 7.65625 7.64062 7.99219 7.45312 8.27344C7.28125 8.55469 6.98438 9.02344 6.5625 9.67969C6.15625 10.3359 5.78906 10.9297 5.46094 11.4609C5.24219 11.8203 4.92188 12 4.5 12C4.07812 12 3.75781 11.8203 3.53906 11.4609C3.21094 10.9297 2.83594 10.3359 2.41406 9.67969C2.00781 9.02344 1.71094 8.55469 1.52344 8.27344C1.35156 7.99219 1.14844 7.65625 0.914062 7.26562C0.679688 6.875 0.523438 6.59375 0.445312 6.42188C0.367188 6.25 0.28125 6.03906 0.1875 5.78906C0.09375 5.53906 0.0390625 5.32812 0.0234375 5.15625C0.0078125 4.96875 0 4.75 0 4.5C0 3.25 0.4375 2.1875 1.3125 1.3125ZM4.5 10.875C4.8125 10.375 5.14844 9.84375 5.50781 9.28125C5.86719 8.71875 6.13281 8.29688 6.30469 8.01562C6.49219 7.71875 6.6875 7.40625 6.89062 7.07812C7.09375 6.75 7.23438 6.50781 7.3125 6.35156C7.40625 6.17969 7.5 6 7.59375 5.8125C7.6875 5.625 7.75 5.46875 7.78125 5.34375C7.8125 5.21875 7.83594 5.09375 7.85156 4.96875C7.86719 4.82812 7.875 4.67188 7.875 4.5C7.875 3.5625 7.54688 2.76562 6.89062 2.10938C6.23438 1.45312 5.4375 1.125 4.5 1.125C3.5625 1.125 2.76562 1.45312 2.10938 2.10938C1.45312 2.76562 1.125 3.5625 1.125 4.5C1.125 4.67188 1.13281 4.82812 1.14844 4.96875C1.16406 5.09375 1.1875 5.22656 1.21875 5.36719C1.25 5.49219 1.3125 5.64844 1.40625 5.83594C1.5 6.02344 1.59375 6.20312 1.6875 6.375C1.78125 6.53125 1.92969 6.77344 2.13281 7.10156C2.33594 7.42969 2.52344 7.74219 2.69531 8.03906C2.88281 8.32031 3.14844 8.74219 3.49219 9.30469C3.85156 9.85156 4.1875 10.375 4.5 10.875ZM3.16406 5.83594C2.80469 5.46094 2.625 5.01562 2.625 4.5C2.625 3.98438 2.80469 3.54688 3.16406 3.1875C3.53906 2.8125 3.98438 2.625 4.5 2.625C5.01562 2.625 5.45312 2.8125 5.8125 3.1875C6.1875 3.54688 6.375 3.98438 6.375 4.5C6.375 5.01562 6.1875 5.46094 5.8125 5.83594C5.45312 6.19531 5.01562 6.375 4.5 6.375C3.98438 6.375 3.53906 6.19531 3.16406 5.83594Z" fill="#485363"/>
</svg>
