<svg width="12" height="12" viewBox="0 0 12 12" fill="none" xmlns="http://www.w3.org/2000/svg">
<path d="M11.3438 7.73438C11.4688 7.78125 11.5781 7.85938 11.6719 7.96875C11.7812 8.07812 11.8594 8.20312 11.9062 8.34375C11.9688 8.46875 12 8.59375 12 8.71875C12 8.79688 11.9922 8.875 11.9766 8.95312L11.4609 11.1562C11.4141 11.3906 11.2891 11.5859 11.0859 11.7422C10.8828 11.9141 10.6641 12 10.4297 12C9.00781 12 7.65625 11.7266 6.375 11.1797C5.09375 10.6328 3.98438 9.89844 3.04688 8.97656C2.125 8.03906 1.38281 6.92969 0.820312 5.64844C0.273438 4.35156 0 3 0 1.59375V1.57031C0 1.33594 0.078125 1.11719 0.234375 0.914062C0.40625 0.710937 0.609375 0.585938 0.84375 0.539062L3.04688 0.0234375C3.125 0.0078125 3.20312 0 3.28125 0C3.48438 0 3.67969 0.0625 3.86719 0.1875C4.05469 0.3125 4.1875 0.46875 4.26562 0.65625L5.27344 3.02344C5.33594 3.16406 5.36719 3.30469 5.36719 3.44531C5.36719 3.78906 5.23438 4.07031 4.96875 4.28906L4.03125 5.03906C4.21875 5.38281 4.47656 5.75 4.80469 6.14062C5.13281 6.51562 5.48438 6.86719 5.85938 7.19531C6.25 7.52344 6.61719 7.78125 6.96094 7.96875L7.71094 7.03125C7.92969 6.76562 8.21094 6.63281 8.55469 6.63281C8.69531 6.63281 8.83594 6.65625 8.97656 6.70312L11.3438 7.73438ZM10.3828 10.875L10.875 8.74219L8.55469 7.75781L7.26562 9.35156C6.10938 8.82031 5.17969 8.21094 4.47656 7.52344C3.78906 6.83594 3.17969 5.90625 2.64844 4.73438L4.24219 3.44531L3.25781 1.125L1.125 1.61719C1.125 2.88281 1.36719 4.08594 1.85156 5.22656C2.35156 6.35156 3.01562 7.32812 3.84375 8.15625C4.67188 8.98438 5.64844 9.64844 6.77344 10.1484C7.91406 10.6328 9.11719 10.875 10.3828 10.875Z" fill="#485363"/>
</svg>
